<svg xmlns="http://www.w3.org/2000/svg" viewBox="0 0 1600 900" role="img" aria-label="Mesa organizada com documentos, carimbo e envelope no Japão">
  <defs><linearGradient id="g" x1="0" y1="0" x2="1" y2="1"><stop stop-color="#f5f1ea"/><stop offset="1" stop-color="#d8c9ad"/></linearGradient><radialGradient id="r" cx=".78" cy=".18" r=".6"><stop stop-color="#b08a57" stop-opacity=".58"/><stop offset="1" stop-color="#111514" stop-opacity="0"/></radialGradient></defs>
  <rect width="1600" height="900" fill="#111514"/><rect width="1600" height="900" fill="url(#r)"/><path d="M0 690c210-80 360-88 540-22s350 84 520 28 320-82 540 10v194H0z" fill="#1d2420"/>
  <rect x="260" y="190" width="520" height="620" rx="24" fill="url(#g)" transform="rotate(-5 520 500)"/><rect x="820" y="145" width="470" height="560" rx="22" fill="#ede4d4" transform="rotate(7 1055 425)"/>
  <rect x="360" y="290" width="310" height="28" rx="14" fill="#27312d" opacity=".35"/><rect x="350" y="360" width="370" height="18" rx="9" fill="#27312d" opacity=".22"/><rect x="350" y="405" width="260" height="18" rx="9" fill="#27312d" opacity=".22"/>
  <circle cx="1058" cy="410" r="92" fill="#a51f2b" opacity=".88"/><circle cx="1058" cy="410" r="58" fill="#ede4d4" opacity=".28"/><rect x="1032" y="316" width="52" height="118" rx="14" fill="#2a1815"/>
  <path d="M1000 590h250v80h-250z" fill="#c9a46d"/><path d="M1018 612h214" stroke="#111514" stroke-opacity=".35" stroke-width="12" stroke-linecap="round"/>
</svg>
