<svg xmlns="http://www.w3.org/2000/svg" viewBox="0 0 1600 900" role="img" aria-label="Balcão de atendimento no Japão com cartões de frases organizados">
  <rect width="1600" height="900" fill="#111514"/><circle cx="350" cy="250" r="290" fill="#a51f2b" opacity=".22"/><circle cx="1260" cy="640" r="360" fill="#b08a57" opacity=".18"/>
  <rect x="240" y="180" width="1120" height="560" rx="34" fill="#f5f1ea"/><rect x="240" y="570" width="1120" height="170" rx="0" fill="#d8c9ad"/>
  <g fill="#111514" opacity=".82"><circle cx="520" cy="400" r="92"/><circle cx="1080" cy="400" r="92"/></g><g fill="#b08a57"><path d="M450 520c42-45 98-68 170-68s128 23 170 68v50H450z"/><path d="M1010 520c42-45 98-68 170-68s128 23 170 68v50h-340z"/></g>
  <g fill="#fff"><rect x="650" y="270" width="320" height="66" rx="18"/><rect x="610" y="365" width="380" height="66" rx="18"/><rect x="680" y="460" width="290" height="66" rx="18"/></g>
  <g fill="#111514" opacity=".24"><rect x="700" y="294" width="220" height="15" rx="8"/><rect x="660" y="389" width="280" height="15" rx="8"/><rect x="730" y="484" width="190" height="15" rx="8"/></g>
</svg>
