<svg xmlns="http://www.w3.org/2000/svg" viewBox="0 0 1600 900" role="img" aria-label="Rua residencial japonesa limpa e silenciosa ao entardecer">
  <rect width="1600" height="900" fill="#121716"/><linearGradient id="sky" x1="0" y1="0" x2="0" y2="1"><stop stop-color="#2b3936"/><stop offset=".72" stop-color="#0f1413"/></linearGradient><rect width="1600" height="620" fill="url(#sky)"/>
  <circle cx="1210" cy="170" r="120" fill="#d9c6a0" opacity=".45"/><path d="M0 650h1600v250H0z" fill="#1c2421"/>
  <g fill="#f5f1ea" opacity=".82"><rect x="180" y="330" width="230" height="250" rx="10"/><rect x="475" y="280" width="300" height="310" rx="12"/><rect x="880" y="320" width="240" height="265" rx="10"/><rect x="1190" y="270" width="250" height="330" rx="12"/></g>
  <g fill="#111514" opacity=".2"><rect x="220" y="380" width="55" height="55"/><rect x="315" y="380" width="55" height="55"/><rect x="535" y="340" width="70" height="70"/><rect x="650" y="340" width="70" height="70"/><rect x="945" y="380" width="56" height="56"/><rect x="1250" y="335" width="60" height="60"/></g>
  <path d="M520 900c90-170 235-255 430-255s340 85 430 255z" fill="#28332f"/><path d="M760 705h200" stroke="#b08a57" stroke-width="12" stroke-linecap="round"/><path d="M126 660h310M1110 650h350" stroke="#f5f1ea" stroke-opacity=".22" stroke-width="16" stroke-linecap="round"/>
</svg>
