<svg xmlns="http://www.w3.org/2000/svg" viewBox="0 0 1600 900" role="img" aria-labelledby="title desc">
<title id="title">Konbini no começo do outono</title><desc id="desc">Loja de conveniência japonesa com prateleiras de produtos sazonais de outono.</desc>
<defs><linearGradient id="bg" x1="0" x2="0" y1="0" y2="1"><stop offset="0" stop-color="#101a22"/><stop offset=".62" stop-color="#151515"/><stop offset="1" stop-color="#090a0a"/></linearGradient><filter id="glow"><feGaussianBlur stdDeviation="6"/></filter></defs>
<rect width="1600" height="900" fill="url(#bg)"/><circle cx="1360" cy="150" r="220" fill="#b62c21" opacity=".2"/>
<g transform="translate(230 185)"><rect width="1015" height="560" rx="18" fill="#ece4d6" stroke="#151515" stroke-width="8"/><rect y="0" width="1015" height="92" rx="18" fill="#151515"/><rect x="46" y="28" width="210" height="32" fill="#2f7a51"/><rect x="278" y="28" width="210" height="32" fill="#f0eadf"/><rect x="510" y="28" width="210" height="32" fill="#b62c21"/><text x="815" y="61" font-family="Arial,sans-serif" font-size="34" font-weight="700" fill="#f0eadf">24H</text><rect x="75" y="150" width="865" height="150" fill="#101a22"/><rect x="75" y="332" width="865" height="150" fill="#101a22"/><g fill="#d58a42"><circle cx="155" cy="220" r="44"/><circle cx="255" cy="220" r="44"/><circle cx="355" cy="220" r="44"/></g><g fill="#7c4930"><rect x="515" y="174" width="80" height="95" rx="12"/><rect x="625" y="174" width="80" height="95" rx="12"/><rect x="735" y="174" width="80" height="95" rx="12"/></g><g fill="#b62c21"><path d="M150 402c50-66 98-66 148 0-44 42-104 42-148 0z"/><path d="M340 402c50-66 98-66 148 0-44 42-104 42-148 0z"/></g><g fill="#f0eadf"><rect x="560" y="375" width="90" height="70" rx="9"/><rect x="690" y="375" width="90" height="70" rx="9"/><rect x="820" y="375" width="90" height="70" rx="9"/></g></g>
<g transform="translate(1085 585)"><path d="M0 0c80-34 150-26 212 24-66 58-144 58-212-24z" fill="#a48250"/><path d="M56-72c78 22 120 78 102 158-76-20-124-74-102-158z" fill="#b62c21"/><path d="M160-60c-12 78-62 126-142 130 6-78 56-128 142-130z" fill="#725c3b"/></g>
<text x="96" y="116" font-family="Georgia,serif" font-size="50" font-weight="700" fill="#f0eadf">JR.<tspan fill="#b62c21">●</tspan></text><text x="96" y="168" font-family="Arial,sans-serif" font-size="24" letter-spacing="8" fill="#a48250">COTIDIANO</text>
</svg>
