<svg xmlns="http://www.w3.org/2000/svg" viewBox="0 0 1200 675" role="img" aria-labelledby="title desc">
  <title id="title">Licencas para trabalhar e empreender no Japao</title>
  <desc id="desc">Composicao editorial com documentos, carimbo, caixa de produtos usados, cozinha e instrumentos de beleza representando permissoes para trabalhar no Japao.</desc>
  <defs>
    <linearGradient id="bg" x1="0" y1="0" x2="1" y2="1">
      <stop offset="0" stop-color="#080b0a"/>
      <stop offset=".48" stop-color="#1d211c"/>
      <stop offset="1" stop-color="#5e171c"/>
    </linearGradient>
    <linearGradient id="paper" x1="0" y1="0" x2="1" y2="1">
      <stop offset="0" stop-color="#fff7e8"/>
      <stop offset="1" stop-color="#d8c8aa"/>
    </linearGradient>
    <linearGradient id="gold" x1="0" y1="0" x2="1" y2="1">
      <stop offset="0" stop-color="#d8ba7a"/>
      <stop offset="1" stop-color="#9a7443"/>
    </linearGradient>
    <filter id="shadow" x="-20%" y="-20%" width="140%" height="140%">
      <feDropShadow dx="0" dy="24" stdDeviation="22" flood-color="#000" flood-opacity=".38"/>
    </filter>
  </defs>
  <rect width="1200" height="675" fill="url(#bg)"/>
  <circle cx="1010" cy="94" r="230" fill="#b08a57" opacity=".17"/>
  <circle cx="190" cy="612" r="295" fill="#c1121f" opacity=".13"/>
  <path d="M0 560c180-66 308-76 462-40 176 42 336 22 503-56 92-43 168-60 235-62v273H0z" fill="#050606" opacity=".42"/>
  <g opacity=".12" stroke="#f5f1ea" stroke-width="2">
    <path d="M80 112h1040M80 224h1040M80 336h1040M80 448h1040"/>
    <path d="M190 60v520M390 60v520M590 60v520M790 60v520M990 60v520"/>
  </g>
  <g filter="url(#shadow)" transform="rotate(-5 445 338)">
    <rect x="190" y="96" width="500" height="474" rx="20" fill="url(#paper)"/>
    <rect x="236" y="154" width="238" height="20" rx="10" fill="#b08a57" opacity=".68"/>
    <rect x="236" y="214" width="358" height="12" rx="6" fill="#101513" opacity=".22"/>
    <rect x="236" y="252" width="298" height="12" rx="6" fill="#101513" opacity=".17"/>
    <rect x="236" y="290" width="342" height="12" rx="6" fill="#101513" opacity=".17"/>
    <rect x="236" y="370" width="150" height="64" rx="8" fill="none" stroke="#9d2228" stroke-width="6"/>
    <circle cx="516" cy="420" r="58" fill="#9d2228" opacity=".86"/>
    <circle cx="516" cy="420" r="39" fill="none" stroke="#fff7e8" stroke-width="6" opacity=".72"/>
    <rect x="236" y="486" width="312" height="12" rx="6" fill="#101513" opacity=".16"/>
    <rect x="236" y="520" width="242" height="12" rx="6" fill="#101513" opacity=".13"/>
  </g>
  <g filter="url(#shadow)" transform="translate(690 126)">
    <rect x="0" y="0" width="322" height="150" rx="18" fill="#101513" stroke="#b08a57" stroke-width="3" opacity=".98"/>
    <rect x="34" y="38" width="84" height="74" rx="10" fill="#2d201b" stroke="#d8ba7a" stroke-width="4"/>
    <path d="M154 46h108M154 78h82M154 110h126" stroke="#f5f1ea" stroke-opacity=".52" stroke-width="10" stroke-linecap="round"/>
    <path d="M52 78h48M76 54v48" stroke="#b08a57" stroke-width="8" stroke-linecap="round"/>
  </g>
  <g filter="url(#shadow)" transform="translate(716 330)">
    <rect x="0" y="0" width="278" height="178" rx="18" fill="#f3ead8"/>
    <path d="M74 116c45-2 86-27 112-70" fill="none" stroke="#9d2228" stroke-width="11" stroke-linecap="round"/>
    <path d="M60 122h148" stroke="#141816" stroke-opacity=".55" stroke-width="12" stroke-linecap="round"/>
    <path d="M84 74l-30-32M84 74l31-34" stroke="#141816" stroke-width="9" stroke-linecap="round"/>
    <circle cx="214" cy="58" r="22" fill="none" stroke="#b08a57" stroke-width="7"/>
    <path d="M214 82v54" stroke="#b08a57" stroke-width="7" stroke-linecap="round"/>
  </g>
  <g filter="url(#shadow)" transform="translate(778 512)">
    <path d="M0 0h194c26 0 48 22 48 48v22H48C22 70 0 48 0 22z" fill="#171b18" stroke="#b08a57" stroke-width="3"/>
    <path d="M52 0c2-28 26-48 58-48s56 20 58 48" fill="none" stroke="#b08a57" stroke-width="8" stroke-linecap="round"/>
    <circle cx="62" cy="36" r="8" fill="#c1121f"/>
    <circle cx="150" cy="36" r="8" fill="#c1121f"/>
  </g>
  <path d="M84 600h326" stroke="url(#gold)" stroke-width="2" opacity=".68"/>
</svg>
