<svg xmlns="http://www.w3.org/2000/svg" viewBox="0 0 1200 675" role="img" aria-labelledby="title desc">
  <title id="title">Licencas para trabalhar e empreender no Japao</title>
  <desc id="desc">Mesa editorial com licencas, carimbo, formulario, cozinha, tesoura e caixa de produtos usados</desc>
  <defs>
    <linearGradient id="bg" x1="0" x2="1" y1="0" y2="1">
      <stop offset="0" stop-color="#111513"/>
      <stop offset="0.55" stop-color="#25231d"/>
      <stop offset="1" stop-color="#0b0f0d"/>
    </linearGradient>
    <linearGradient id="paper" x1="0" x2="1">
      <stop offset="0" stop-color="#fff8e8"/>
      <stop offset="1" stop-color="#e7dcc8"/>
    </linearGradient>
    <filter id="shadow" x="-20%" y="-20%" width="140%" height="140%">
      <feDropShadow dx="0" dy="20" stdDeviation="18" flood-color="#000" flood-opacity=".35"/>
    </filter>
  </defs>
  <rect width="1200" height="675" fill="url(#bg)"/>
  <circle cx="970" cy="92" r="220" fill="#b28a55" opacity=".16"/>
  <circle cx="110" cy="620" r="260" fill="#a51f2b" opacity=".12"/>
  <g filter="url(#shadow)">
    <rect x="165" y="106" width="520" height="440" rx="16" fill="url(#paper)"/>
    <rect x="206" y="154" width="270" height="20" fill="#b28a55" opacity=".55"/>
    <rect x="206" y="208" width="396" height="10" fill="#111513" opacity=".22"/>
    <rect x="206" y="240" width="340" height="10" fill="#111513" opacity=".18"/>
    <rect x="206" y="272" width="384" height="10" fill="#111513" opacity=".18"/>
    <rect x="206" y="322" width="132" height="54" rx="6" fill="none" stroke="#a51f2b" stroke-width="5"/>
    <text x="425" y="394" fill="#111513" font-family="Georgia, serif" font-size="58">許可</text>
    <rect x="206" y="452" width="330" height="12" fill="#111513" opacity=".18"/>
    <rect x="206" y="486" width="250" height="12" fill="#111513" opacity=".14"/>
  </g>
  <g transform="translate(695 150)" filter="url(#shadow)">
    <rect x="0" y="0" width="320" height="145" rx="12" fill="#181d1a" stroke="#b28a55" stroke-opacity=".55"/>
    <circle cx="68" cy="72" r="34" fill="none" stroke="#b28a55" stroke-width="8"/>
    <path d="M125 50h126M125 76h96M125 102h142" stroke="#fff8e8" stroke-opacity=".6" stroke-width="10" stroke-linecap="round"/>
  </g>
  <g transform="translate(742 340)" filter="url(#shadow)">
    <rect x="0" y="0" width="245" height="170" rx="12" fill="#f4efe4"/>
    <path d="M68 52c46 0 88 28 100 72" fill="none" stroke="#a51f2b" stroke-width="10" stroke-linecap="round"/>
    <path d="M58 120h128" stroke="#111513" stroke-opacity=".55" stroke-width="12" stroke-linecap="round"/>
    <path d="M80 70l-28-28M80 70l26-32" stroke="#111513" stroke-width="10" stroke-linecap="round"/>
  </g>
  <g transform="translate(520 470)">
    <rect x="0" y="0" width="530" height="72" rx="36" fill="#0d1110" stroke="#b28a55" stroke-opacity=".45"/>
    <text x="38" y="47" fill="#fff8e8" font-family="Arial, sans-serif" font-size="28" font-weight="700" letter-spacing="4">UTILIDADES JR</text>
  </g>
</svg>
