<svg xmlns="http://www.w3.org/2000/svg" viewBox="0 0 1600 900" role="img" aria-label="Cartões de frases úteis em japonês com apoio de leitura">
  <rect width="1600" height="900" fill="#f5f1ea"/><path d="M0 0h1600v250H0z" fill="#111514"/><circle cx="1320" cy="110" r="190" fill="#b08a57" opacity=".25"/>
  <g transform="translate(210 190)"><rect width="360" height="480" rx="28" fill="#111514"/><rect x="44" y="62" width="272" height="28" rx="14" fill="#f5f1ea" opacity=".85"/><rect x="44" y="155" width="220" height="20" rx="10" fill="#b08a57"/><rect x="44" y="220" width="270" height="18" rx="9" fill="#f5f1ea" opacity=".28"/><rect x="44" y="270" width="230" height="18" rx="9" fill="#f5f1ea" opacity=".28"/></g>
  <g transform="translate(620 250)"><rect width="360" height="480" rx="28" fill="#e3d5bd"/><rect x="44" y="62" width="272" height="28" rx="14" fill="#111514" opacity=".42"/><rect x="44" y="155" width="220" height="20" rx="10" fill="#a51f2b"/><rect x="44" y="220" width="270" height="18" rx="9" fill="#111514" opacity=".22"/><rect x="44" y="270" width="230" height="18" rx="9" fill="#111514" opacity=".22"/></g>
  <g transform="translate(1030 190)"><rect width="360" height="480" rx="28" fill="#111514"/><rect x="44" y="62" width="272" height="28" rx="14" fill="#f5f1ea" opacity=".85"/><rect x="44" y="155" width="220" height="20" rx="10" fill="#b08a57"/><rect x="44" y="220" width="270" height="18" rx="9" fill="#f5f1ea" opacity=".28"/><rect x="44" y="270" width="230" height="18" rx="9" fill="#f5f1ea" opacity=".28"/></g>
</svg>
