<svg xmlns="http://www.w3.org/2000/svg" viewBox="0 0 1600 900" role="img" aria-label="Vizinhança japonesa com coleta de lixo organizada e rua limpa">
  <rect width="1600" height="900" fill="#f5f1ea"/><path d="M0 610h1600v290H0z" fill="#d8c9ad"/><path d="M0 610c260-80 500-80 760 0s540 70 840-20v160H0z" fill="#111514" opacity=".88"/>
  <g fill="#e9dfcd"><rect x="160" y="250" width="250" height="280" rx="10"/><rect x="490" y="210" width="330" height="320" rx="12"/><rect x="930" y="245" width="280" height="290" rx="10"/><rect x="1290" y="200" width="230" height="330" rx="12"/></g>
  <g fill="#111514" opacity=".22"><rect x="210" y="310" width="62" height="62"/><rect x="305" y="310" width="62" height="62"/><rect x="560" y="285" width="78" height="78"/><rect x="685" y="285" width="78" height="78"/><rect x="1000" y="315" width="68" height="68"/></g>
  <g transform="translate(650 595)"><rect width="300" height="110" rx="12" fill="#f5f1ea"/><circle cx="70" cy="132" r="24" fill="#111514"/><circle cx="230" cy="132" r="24" fill="#111514"/><path d="M48 42h204" stroke="#b08a57" stroke-width="14" stroke-linecap="round"/><path d="M72 76h156" stroke="#111514" stroke-opacity=".22" stroke-width="12" stroke-linecap="round"/></g>
</svg>
