<svg xmlns="http://www.w3.org/2000/svg" viewBox="0 0 1200 675" role="img" aria-labelledby="title desc">
  <title id="title">Checklist visual de licencas no Japao</title>
  <desc id="desc">Mesa organizada com checklist, carimbos e simbolos de produtos usados, comida e beleza para orientar verificacoes antes de empreender.</desc>
  <defs>
    <linearGradient id="bg" x1="0" y1="0" x2="1" y2="1">
      <stop offset="0" stop-color="#0c1110"/>
      <stop offset=".55" stop-color="#1f352f"/>
      <stop offset="1" stop-color="#761e25"/>
    </linearGradient>
    <linearGradient id="paper" x1="0" y1="0" x2="0" y2="1">
      <stop offset="0" stop-color="#f8efdc"/>
      <stop offset="1" stop-color="#d8c29c"/>
    </linearGradient>
    <filter id="shadow" x="-20%" y="-20%" width="140%" height="140%">
      <feDropShadow dx="0" dy="20" stdDeviation="18" flood-color="#020303" flood-opacity=".38"/>
    </filter>
  </defs>
  <rect width="1200" height="675" fill="url(#bg)"/>
  <circle cx="1046" cy="110" r="218" fill="#b08a57" opacity=".18"/>
  <circle cx="146" cy="604" r="270" fill="#c1121f" opacity=".16"/>
  <g opacity=".13" stroke="#f6ead1" stroke-width="2">
    <path d="M0 148h1200M0 300h1200M0 452h1200M0 604h1200"/>
    <path d="M180 0v675M360 0v675M540 0v675M720 0v675M900 0v675M1080 0v675"/>
  </g>
  <g filter="url(#shadow)">
    <rect x="162" y="84" width="520" height="508" rx="22" fill="url(#paper)"/>
    <rect x="208" y="130" width="210" height="32" rx="16" fill="#8f2427"/>
    <rect x="208" y="202" width="392" height="16" rx="8" fill="#20352f" opacity=".84"/>
    <rect x="208" y="244" width="328" height="12" rx="6" fill="#20352f" opacity=".27"/>
    <rect x="208" y="286" width="356" height="12" rx="6" fill="#20352f" opacity=".27"/>
    <g fill="none" stroke="#8f2427" stroke-width="9" stroke-linecap="round" stroke-linejoin="round">
      <path d="M218 372l22 22 44-58"/>
      <path d="M218 448l22 22 44-58"/>
      <path d="M218 524l22 22 44-58"/>
    </g>
    <rect x="316" y="358" width="250" height="14" rx="7" fill="#20352f" opacity=".44"/>
    <rect x="316" y="386" width="194" height="10" rx="5" fill="#20352f" opacity=".22"/>
    <rect x="316" y="434" width="226" height="14" rx="7" fill="#20352f" opacity=".44"/>
    <rect x="316" y="462" width="178" height="10" rx="5" fill="#20352f" opacity=".22"/>
    <rect x="316" y="510" width="266" height="14" rx="7" fill="#20352f" opacity=".44"/>
    <rect x="316" y="538" width="206" height="10" rx="5" fill="#20352f" opacity=".22"/>
  </g>
  <g filter="url(#shadow)" transform="translate(730 112)">
    <rect x="0" y="0" width="300" height="118" rx="20" fill="#13201c" stroke="#d7b66b" stroke-width="3"/>
    <path d="M54 78h104c18 0 34-16 34-34v-8H88c-18 0-34 16-34 34z" fill="#d7b66b" opacity=".18"/>
    <path d="M78 42h92M78 66h138" stroke="#f5ead4" stroke-opacity=".48" stroke-width="10" stroke-linecap="round"/>
    <circle cx="224" cy="60" r="26" fill="none" stroke="#b08a57" stroke-width="7"/>
  </g>
  <g filter="url(#shadow)" transform="translate(730 278)">
    <rect x="0" y="0" width="300" height="118" rx="20" fill="#13201c" stroke="#d7b66b" stroke-width="3"/>
    <path d="M68 82c44 0 82-24 96-64" fill="none" stroke="#c1121f" stroke-width="11" stroke-linecap="round"/>
    <path d="M58 82h136" stroke="#f5ead4" stroke-opacity=".52" stroke-width="10" stroke-linecap="round"/>
    <circle cx="230" cy="60" r="26" fill="#d7b66b" opacity=".28"/>
    <path d="M230 36v48M206 60h48" stroke="#f5ead4" stroke-opacity=".62" stroke-width="8" stroke-linecap="round"/>
  </g>
  <g filter="url(#shadow)" transform="translate(730 444)">
    <rect x="0" y="0" width="300" height="118" rx="20" fill="#13201c" stroke="#d7b66b" stroke-width="3"/>
    <path d="M66 34l92 58M158 34L66 92" stroke="#f5ead4" stroke-opacity=".58" stroke-width="9" stroke-linecap="round"/>
    <circle cx="66" cy="34" r="15" fill="none" stroke="#c1121f" stroke-width="7"/>
    <circle cx="158" cy="34" r="15" fill="none" stroke="#c1121f" stroke-width="7"/>
    <path d="M222 36v50M244 36v50" stroke="#d7b66b" stroke-width="8" stroke-linecap="round"/>
  </g>
  <path d="M90 620h334" stroke="#d7b66b" stroke-width="2" opacity=".68"/>
</svg>
